<?xml version="1.0" ?><svg id="Layer_1" style="enable-background:new 0 0 512 512;" version="1.1" viewBox="0 0 512 512" xml:space="preserve" xmlns="http://www.w3.org/2000/svg" xmlns:xlink="http://www.w3.org/1999/xlink"><g id="XMLID_2274_"><g id="XMLID_1045_"><g id="XMLID_1051_"><g id="XMLID_1061_"><g id="XMLID_1064_"><polygon id="XMLID_1065_" points="419.3,112.9 319.7,112.9 319.7,13.3 334.2,13.3 334.2,98.4 419.3,98.4      "/></g><g id="XMLID_1062_"><polygon id="XMLID_3138_" points="426.6,256 426.6,102.7 334,6 37.9,6 37.9,506 426.6,506 426.6,457.1 412.1,457.1        412.1,491.5 52.4,491.5 52.4,422.4 45.2,422.4 45.2,348.7 52.4,348.7 52.4,20.5 327.8,20.5 412.1,108.6 412.1,256      "/></g></g><g id="XMLID_1052_"><g id="XMLID_1059_"><rect height="14.5" id="XMLID_1060_" width="197.1" x="98.7" y="111.4"/></g><g id="XMLID_1057_"><rect height="14.5" id="XMLID_1058_" width="129.9" x="98.7" y="154.2"/></g><g id="XMLID_1055_"><rect height="14.5" id="XMLID_1056_" width="267" x="98.7" y="197.1"/></g><g id="XMLID_1053_"><rect height="14.5" id="XMLID_1054_" width="267" x="98.7" y="239.9"/></g></g></g><g id="XMLID_1046_"><path d="M419.3,475L341,361.7h33.5v-113h89.8v113h33.5L419.3,475z M368.7,376.2l50.7,73.3l50.7-73.3h-20.3v-113     H389v113H368.7z" id="XMLID_1047_"/></g></g><g id="XMLID_2241_"><path d="M116.1,367.4c-3.6,0-6.4,1.3-8.5,3.9s-3.1,5.9-3.1,10v8.8c0,4.1,1,7.4,3.1,10.1c2.1,2.6,4.9,3.9,8.4,3.9    c3.7,0,6.6-1.3,8.8-3.9s3.2-6,3.2-10.1v-8.8c0-4-1.1-7.4-3.2-10C122.8,368.7,119.8,367.4,116.1,367.4z" id="XMLID_2242_"/><path d="M66.3,368h-7.9v35.6h7.9c3.9,0,7-1.3,9.3-4c2.3-2.6,3.4-6,3.4-10.2V382c0-4.1-1.1-7.5-3.4-10.1    C73.3,369.3,70.2,368,66.3,368z" id="XMLID_2243_"/><path d="M282,328.3H14.3v115H282l-56.9-57.5L282,328.3z M87.1,389.5c0,6.1-1.9,11-5.8,14.9    c-3.9,3.8-8.9,5.7-15,5.7H50.2v-48.6h16.1c6.2,0,11.2,1.9,15,5.8c3.9,3.9,5.8,8.8,5.8,14.9V389.5z M136.3,390.1    c0,5.9-1.9,10.9-5.6,14.8c-3.7,3.9-8.6,5.9-14.5,5.9c-5.8,0-10.5-2-14.2-5.9c-3.6-3.9-5.5-8.8-5.5-14.8v-8.7    c0-5.9,1.8-10.8,5.5-14.8c3.6-3.9,8.4-5.9,14.2-5.9c5.9,0,10.8,2,14.5,5.9c3.7,3.9,5.6,8.8,5.6,14.8V390.1z M156.5,400.4    c2,2.6,4.6,3.9,8,3.9c3.3,0,5.8-0.9,7.6-2.6c1.7-1.7,2.6-4.2,2.6-7.5h7.8l0.1,0.2c0.1,4.9-1.5,8.9-4.8,11.9    c-3.3,3-7.7,4.5-13.3,4.5c-5.7,0-10.2-1.9-13.8-5.7c-3.5-3.8-5.3-8.7-5.3-14.6v-9.2c0-5.9,1.7-10.8,5.2-14.6s8-5.8,13.6-5.8    c5.7,0,10.2,1.5,13.5,4.4c3.3,2.9,4.9,6.9,4.8,12l-0.1,0.2h-7.8c0-3.2-0.9-5.7-2.6-7.5c-1.8-1.7-4.3-2.6-7.7-2.6    c-3.3,0-5.9,1.3-7.8,3.9c-1.9,2.6-2.9,5.9-2.9,9.9v9.3C153.5,394.4,154.5,397.8,156.5,400.4z M229.4,410.1h-9.7l-10.5-18.3    l-10.5,18.3h-9.6l15.3-24.5l-15-24.1h9.5l10.1,18l10.2-18h9.6l-15,24.1L229.4,410.1z" id="XMLID_3063_"/></g></g></svg>